HIERARCHY
ROOT Hips
{
	OFFSET	0.00	0.00	0.00
	CHANNELS 6 Xposition Yposition Zposition Zrotation Xrotation Yrotation
	JOINT LeftUpLeg
	{
		OFFSET	 0.126116	-0.065224	 0.014019
		CHANNELS 3 Zrotation Xrotation Yrotation
		JOINT LeftLeg
		{
			OFFSET	 0.000000	 0.569914	 0.000000
			CHANNELS 3 Zrotation Xrotation Yrotation
			JOINT LeftFoot
			{
				OFFSET	 0.000000	 0.544423	 0.000000
				CHANNELS 3 Zrotation Xrotation Yrotation
				JOINT LeftToeBase
				{
					OFFSET	 0.000000	 0.207117	 0.000000
					CHANNELS 3 Zrotation Xrotation Yrotation
					End Site
					{
						OFFSET	 0.000000	 0.207117	 0.000000
					}
				}
			}
		}
	}
	JOINT RightUpLeg
	{
		OFFSET	-0.124023	-0.065224	 0.008373
		CHANNELS 3 Zrotation Xrotation Yrotation
		JOINT RightLeg
		{
			OFFSET	 0.000000	 0.570047	 0.000000
			CHANNELS 3 Zrotation Xrotation Yrotation
			JOINT RightFoot
			{
				OFFSET	 0.000000	 0.544354	 0.000000
				CHANNELS 3 Zrotation Xrotation Yrotation
				JOINT RightToeBase
				{
					OFFSET	 0.000000	 0.207540	 0.000000
					CHANNELS 3 Zrotation Xrotation Yrotation
					End Site
					{
						OFFSET	 0.000000	 0.207540	 0.000000
					}
				}
			}
		}
	}
	JOINT Spine
	{
		OFFSET	 0.000184	 0.117403	 0.007763
		CHANNELS 3 Zrotation Xrotation Yrotation
		JOINT Spine1
		{
			OFFSET	 0.000000	 0.137269	 0.000000
			CHANNELS 3 Zrotation Xrotation Yrotation
			JOINT Spine2
			{
				OFFSET	 0.000000	 0.156879	 0.000000
				CHANNELS 3 Zrotation Xrotation Yrotation
				JOINT LeftShoulder
				{
					OFFSET	 0.080501	 0.160143	 0.002496
					CHANNELS 3 Zrotation Xrotation Yrotation
					JOINT LeftArm
					{
						OFFSET	 0.000000	 0.164363	 0.000000
						CHANNELS 3 Zrotation Xrotation Yrotation
						JOINT LeftForeArm
						{
							OFFSET	 0.000000	 0.364576	 0.000000
							CHANNELS 3 Zrotation Xrotation Yrotation
							JOINT LeftHand
							{
								OFFSET	 0.000000	 0.360812	 0.000000
								CHANNELS 3 Zrotation Xrotation Yrotation
								JOINT LeftHandIndex1
								{
									OFFSET	 0.000000	 0.086006	 0.000000
									CHANNELS 3 Zrotation Xrotation Yrotation
									JOINT LeftHandIndex2
									{
										OFFSET	 0.000000	 0.047237	 0.000000
										CHANNELS 3 Zrotation Xrotation Yrotation
										JOINT LeftHandIndex3
										{
											OFFSET	-0.004284	 0.038165	 0.000551
											CHANNELS 3 Zrotation Xrotation Yrotation
											End Site
											{
												OFFSET	-0.004284	 0.038165	 0.000551
											}
										}
									}
								}
							}
						}
					}
				}
				JOINT Neck
				{
					OFFSET	 0.000000	 0.176489	 0.000000
					CHANNELS 3 Zrotation Xrotation Yrotation
					JOINT Head
					{
						OFFSET	 0.000000	 0.077941	 0.001747
						CHANNELS 3 Zrotation Xrotation Yrotation
						End Site
						{
							OFFSET	 0.000000	 0.077941	 0.001747
						}
					}
				}
				JOINT RightShoulder
				{
					OFFSET	-0.080363	 0.159706	-0.000306
					CHANNELS 3 Zrotation Xrotation Yrotation
					JOINT RightArm
					{
						OFFSET	 0.000000	 0.164196	 0.000000
						CHANNELS 3 Zrotation Xrotation Yrotation
						JOINT RightForeArm
						{
							OFFSET	 0.000000	 0.365611	 0.000000
							CHANNELS 3 Zrotation Xrotation Yrotation
							JOINT RightHand
							{
								OFFSET	 0.000000	 0.360648	 0.000000
								CHANNELS 3 Zrotation Xrotation Yrotation
								JOINT RightHandIndex1
								{
									OFFSET	 0.000000	 0.069977	 0.000000
									CHANNELS 3 Zrotation Xrotation Yrotation
									JOINT RightHandIndex2
									{
										OFFSET	 0.000000	 0.052305	 0.000000
										CHANNELS 3 Zrotation Xrotation Yrotation
										JOINT RightHandIndex3
										{
											OFFSET	 0.009002	 0.042196	 0.000782
											CHANNELS 3 Zrotation Xrotation Yrotation
											End Site
											{
												OFFSET	 0.009002	 0.042196	 0.000782
											}
										}
									}
								}
							}
						}
					}
				}
			}
		}
	}
}
MOTION
Frames:    13
Frame Time: 0.03333334
-0.047866	 1.234782	-1.246484	-2.401803	 1.314970	-174.272900	 172.375300	 8.428086	-5.508784	 4.375448	-29.924110	 6.103153	 8.631601	 79.680180	-0.965008	 1.512287	 31.240310	-2.811662	 174.281000	 28.170640	 8.630787	-5.738479	-53.055980	 6.355062	 7.575765	 69.870460	-5.612100	-1.668530	 33.137300	 2.886185	-1.467688	 8.958258	-11.925910	 4.514838	 2.443646	-5.454646	-4.631713	-2.276794	 13.137980	-121.358900	 7.423534	 94.035500	 17.984270	 44.910270	-2.502556	 18.242310	-0.928025	 0.065188	-12.909240	-29.600050	-27.922330	 4.624177	 18.856530	-1.654968	-5.863953	 21.470840	 2.373669	 5.331528	 4.340008	-0.169039	-0.168371	-5.009586	-0.144698	-2.156826	-2.462828	 0.346973	 118.423900	-0.013281	-90.826380	-3.408758	 52.868800	-2.797925	-5.010357	-0.196905	 0.049931	-12.535880	-1.340133	-44.735330	-2.438165	 25.992480	 1.336381	 15.855080	 44.981340	-11.843920	-8.529009	 23.990480	-1.227679
-0.047782	 1.234521	-1.254306	-2.415116	 1.156924	-174.123100	 172.370700	 8.279778	-5.388335	 4.409168	-30.114270	 6.262142	 9.658056	 79.906940	-2.015927	 1.522326	 31.365110	-2.816392	 173.894500	 29.236740	 9.217201	-5.788679	-53.072630	 6.425404	 9.184553	 71.323590	-6.789282	-1.672909	 33.189640	 2.888376	-1.442413	 8.546761	-11.943850	 4.503309	 3.335381	-5.527953	-4.578456	-3.593860	 13.001210	-121.355600	 7.548480	 94.097560	 16.333460	 44.781420	-0.975877	 20.395290	-1.033130	 0.101993	-12.787750	-31.731490	-27.880490	 4.640312	 18.909460	-1.663574	-5.863811	 21.517330	 2.378801	 5.333524	 4.386777	-0.168189	-0.170657	-5.020207	-0.134191	-2.123100	-2.667464	 0.301856	 118.406500	-0.086955	-90.791790	-1.662990	 52.991490	-3.972452	-5.020452	-0.197304	 0.049866	-13.843950	-1.729089	-44.687700	-2.379641	 25.557320	 1.305067	 15.745240	 44.556760	-11.674690	-8.530633	 23.553650	-1.198575
-0.047525	 1.233483	-1.269155	-2.454273	 0.916123	-173.903700	 172.370700	 7.842480	-5.199271	 4.442489	-30.301410	 6.490146	 11.431960	 80.424820	-3.861089	 1.537270	 31.550320	-2.823469	 173.229300	 31.181430	 10.018990	-5.710016	-52.919420	 6.714044	 11.693540	 72.989910	-8.719712	-1.679417	 33.267320	 2.891640	-1.412615	 8.094284	-11.913670	 4.436127	 4.219771	-5.561016	-4.471028	-4.886395	 12.674280	-121.351000	 7.733822	 94.189590	 15.079100	 44.324800	 0.339845	 23.129230	-1.164458	 0.154418	-12.934240	-34.286790	-27.396190	 4.664282	 18.988000	-1.676381	-5.863607	 21.586330	 2.386420	 5.336487	 4.456182	-0.166931	-0.174045	-5.035971	-0.118599	-2.070689	-2.878481	 0.209864	 118.380900	-0.196304	-90.740490	 0.673183	 52.999250	-5.519910	-5.037791	-0.197943	 0.049820	-15.184010	-2.366639	-44.413760	-2.293638	 24.911330	 1.259695	 15.586870	 43.926100	-11.427810	-8.532589	 22.905250	-1.155575
-0.047040	 1.231474	-1.293166	-2.517344	 0.598468	-173.622500	 172.402600	 6.936163	-4.945034	 4.452987	-30.360300	 6.769447	 14.263530	 81.271430	-6.831395	 1.556697	 31.790040	-2.832735	 172.244800	 34.033570	 11.155400	-5.547812	-52.124750	 7.129943	 14.815090	 74.246050	-11.218940	-1.687856	 33.367850	 2.895884	-1.382202	 7.600213	-11.848850	 4.323646	 5.149468	-5.570588	-4.316671	-6.194964	 12.170100	-121.345500	 7.973765	 94.308820	 14.706150	 43.435280	 1.045814	 26.108040	-1.304536	 0.218601	-13.261370	-37.051660	-26.456960	 4.695350	 19.089640	-1.693016	-5.863359	 21.675640	 2.396286	 5.340321	 4.546011	-0.165308	-0.178424	-5.056374	-0.098419	-2.001487	-3.098052	 0.074329	 118.347800	-0.337863	-90.674210	 3.777125	 52.817910	-7.603936	-5.061294	-0.198885	 0.049738	-16.721780	-3.173620	-43.913390	-2.183779	 24.074910	 1.202877	 15.389800	 43.108890	-11.115530	-8.534329	 22.065770	-1.100238
-0.046214	 1.228376	-1.328120	-2.613677	 0.195751	-173.273200	 172.489900	 5.359132	-4.620934	 4.397123	-30.046420	 7.079835	 18.700900	 82.381370	-11.489390	 1.580753	 32.085220	-2.844309	 170.917900	 37.462330	 12.640330	-5.097691	-49.760170	 7.876328	 17.761060	 74.524830	-13.606640	-1.698275	 33.491650	 2.901141	-1.363151	 7.054319	-11.755390	 4.159703	 6.153192	-5.564379	-4.112465	-7.551263	 11.476540	-121.339400	 8.269277	 94.455660	 15.791520	 42.006200	 0.727262	 28.629590	-1.420312	 0.278584	-13.328400	-39.886990	-24.989390	 4.733675	 19.214800	-1.713596	-5.863076	 21.785620	 2.408442	 5.345037	 4.656628	-0.163317	-0.183807	-5.081501	-0.073570	-1.915199	-3.330189	-0.107195	 118.307300	-0.512239	-90.592690	 7.751357	 52.351720	-10.314240	-5.090780	-0.200047	 0.049705	-18.540960	-4.089525	-43.141390	-2.050659	 23.044540	 1.135783	 15.158850	 42.101270	-10.741690	-8.535263	 21.031780	-1.032554
-0.044842	 1.223290	-1.381783	-2.752744	-0.365648	-172.795000	 172.699800	 2.573317	-4.145898	 4.197351	-28.907410	 7.455361	 27.060020	 83.733650	-20.211350	 1.614526	 32.496590	-2.860749	 169.216400	 40.862870	 14.689890	-4.061458	-43.286960	 9.294928	 19.792670	 73.178760	-15.186370	-1.712841	 33.664170	 2.908525	-1.345448	 6.369264	-11.597880	 3.927321	 7.372495	-5.515064	-3.827882	-9.165396	 10.411060	-121.332200	 8.681114	 94.660480	 19.271760	 39.628370	-1.087043	 29.763990	-1.471564	 0.307199	-12.025250	-43.136150	-22.517920	 4.787214	 19.389180	-1.742449	-5.862722	 21.938880	 2.425398	 5.351605	 4.810781	-0.160557	-0.191290	-5.116522	-0.038945	-1.793658	-3.615578	-0.379443	 118.251200	-0.755350	-90.479240	 13.503310	 51.277090	-14.272100	-5.550065	-0.218022	 0.047963	-20.628610	-5.183786	-41.814950	-1.868919	 21.608260	 1.047387	 14.857350	 40.695170	-10.239160	-8.534393	 19.590680	-0.938999
-0.043206	 1.217643	-1.437374	-2.904424	-0.956211	-172.291500	 172.982800	-0.572887	-3.615251	 3.889889	-27.104000	 7.816951	 37.840400	 84.631700	-31.397910	 1.650700	 32.933230	-2.878598	 168.217900	 41.592360	 16.341340	-2.750593	-32.546070	 11.039510	 20.818160	 70.795740	-15.893280	-1.728364	 33.847300	 2.916437	-1.340042	 5.707808	-11.387270	 3.675565	 8.393281	-5.389604	-3.535541	-10.591690	 9.173024	-121.326200	 9.118279	 94.878070	 23.892390	 36.996630	-3.379539	 28.328690	-1.406621	 0.271154	-8.247475	-46.150240	-19.477480	 4.844211	 19.574270	-1.773300	-5.862401	 22.101560	 2.443415	 5.358571	 4.974415	-0.157647	-0.199210	-5.153701	-0.002192	-1.663300	-3.888833	-0.687672	 118.192200	-1.013501	-90.359120	 22.202480	 49.193760	-20.373630	-10.745140	-0.420316	 0.019008	-19.741150	-6.051323	-40.139300	-1.680499	 20.083600	 0.959793	 14.561480	 39.200770	-9.727433	-8.530771	 18.061180	-0.840554
-0.040807	 1.210993	-1.494461	-3.014558	-1.504796	-171.748900	 173.398300	-3.609865	-3.041740	 3.647102	-25.637030	 8.025994	 46.951720	 85.160290	-40.970280	 1.755170	 34.171300	-2.931516	 168.672800	 38.926060	 16.767810	-1.402485	-18.030040	 12.793080	 20.980060	 67.785090	-15.896200	-1.749391	 34.094150	 2.927223	-1.289724	 5.062879	-11.136510	 3.371716	 9.212072	-5.123097	-3.201010	-11.904840	 7.631182	-121.309200	 9.550736	 95.092190	 27.992810	 34.721560	-5.102495	 25.650860	-1.283200	 0.208290	-1.543005	-49.241650	-15.493390	 4.924509	 19.781980	-1.813836	-5.862059	 22.316470	 2.467247	 5.368455	 5.206874	-0.153548	-0.204937	-5.190747	 0.036539	-1.525931	-4.129535	-1.013803	 118.163600	-1.291553	-90.230900	 26.418860	 47.545480	-22.716790	-11.501230	-0.449507	 0.013289	-20.106280	-7.087148	-38.183790	-1.493425	 18.242080	 0.877710	 14.237030	 37.407620	-9.140796	-8.522892	 16.233470	-0.723837
-0.035100	 1.198254	-1.576061	-2.679609	-1.364291	-171.426300	 174.669100	-7.726016	-2.669934	 3.680245	-25.839560	 6.750496	 30.696910	 85.856120	-25.344160	 2.291051	 39.996030	-3.232329	 170.883100	 35.919020	 14.603800	-0.649351	-8.570970	 11.781660	 11.956330	 61.191680	-8.946642	-1.790535	 34.573230	 2.948561	-0.818436	 4.783110	-11.300000	 3.153183	 10.073660	-4.828884	-2.805824	-13.052960	 5.915418	-121.217800	 9.567334	 95.090930	 30.094200	 33.733900	-7.503604	 25.010520	-1.253271	 0.194174	 3.445020	-50.254020	-11.456120	 5.097579	 19.965970	-1.885759	-5.861684	 22.710470	 2.511040	 5.390244	 5.720332	-0.144646	-0.190253	-5.194040	 0.055024	-1.469455	-4.057884	-1.078127	 118.371200	-1.463195	-90.156750	 27.695150	 46.181160	-22.390490	-10.462680	-0.409388	 0.021147	-21.596450	-8.937788	-36.715520	-1.451790	 15.784210	 0.865272	 13.862850	 35.093210	-8.422651	-8.507416	 13.907350	-0.576354
-0.028395	 1.185263	-1.654069	-2.324953	-1.159852	-171.030700	 175.998500	-11.094470	-2.234343	 3.893402	-27.124980	 5.400316	 5.230831	 85.641750	-0.637564	 3.051375	 46.865400	-3.729147	 171.791800	 40.638860	 12.916610	-1.646389	-20.911510	 10.207980	 12.952560	 67.428350	-9.058983	-1.839621	 35.137890	 2.974411	-0.314516	 4.524080	-11.386660	 2.805553	 10.403400	-4.286534	-2.333878	-13.849160	 3.778953	-121.110100	 9.586910	 95.089400	 28.267170	 34.537560	-7.433134	 27.754730	-1.380432	 0.257182	 10.096160	-51.748490	-6.182382	 5.302150	 20.182590	-1.971400	-5.861661	 23.174880	 2.562817	 5.415850	 6.325539	-0.134395	-0.172944	-5.197915	 0.076813	-1.403404	-3.946342	-1.169401	 118.616100	-1.665163	-90.068530	 27.426110	 45.385380	-20.556970	-9.474556	-0.371100	 0.027841	-20.809300	-11.108830	-35.104840	-1.403987	 12.886610	 0.853133	 13.478600	 32.360300	-7.623497	-8.481514	 11.165190	-0.403360
-0.020943	 1.176571	-1.723515	-1.531044	-0.506369	-169.947800	 178.707300	-18.515580	-1.376242	 3.188531	-22.764790	 3.566443	-8.353830	 74.758510	 12.057740	 4.768932	 58.068910	-4.524254	 173.910100	 39.005260	 11.054530	-1.691192	-21.429540	 10.355300	 5.793335	 61.446130	-6.436258	-1.838384	 35.123760	 2.973755	 0.588474	 4.325917	-11.728310	 2.601735	 10.411430	-3.926263	-1.828283	-14.108200	 1.496292	-121.047700	 9.367543	 94.973270	 29.185210	 34.697820	-8.150887	 25.465090	-1.274553	 0.204169	 14.294630	-49.504600	-3.511962	 5.332635	 20.454100	-2.000463	-5.862232	 23.727970	 2.624718	 5.447676	 7.080454	-0.121967	-0.145970	-5.182563	 0.080538	-1.533797	-3.393746	-1.348717	 118.989800	-2.029409	-89.906010	 26.148540	 44.175520	-18.575980	-5.079303	-0.199587	 0.049802	-23.603110	-12.421190	-31.595420	-1.470646	 10.617440	 0.881451	 13.223240	 30.278130	-7.045087	-8.457117	 9.137484	-0.275582
-0.011919	 1.184164	-1.842078	-0.525851	 0.690209	-168.863900	-178.982500	-14.922230	-2.174040	 5.271876	-34.729830	 4.125165	-11.891660	 64.233010	 14.693470	 7.426099	 68.595670	-6.138834	 177.062800	 35.668270	 8.366230	-2.321425	-28.310600	 10.257220	-1.846972	 58.927230	-3.976283	-1.782555	 34.480740	 2.944399	 1.662516	 4.368322	-10.819540	 1.854411	 9.943023	-2.818936	-1.002591	-13.832690	-1.216211	-120.959200	 8.911714	 94.737560	 22.042140	 38.612250	-3.169203	 27.912690	-1.387651	 0.261011	 18.714000	-45.444700	 1.614581	 5.232631	 20.972020	-2.000372	-5.864143	 24.503300	 2.711951	 5.492525	 8.148772	-0.105063	-0.101261	-5.137403	 0.053261	-1.784544	-2.606236	-1.780650	 119.457200	-2.339888	-89.767210	 24.098710	 44.469010	-16.434030	-5.089346	-0.199987	 0.049688	-21.782140	-15.552990	-24.656250	-1.654148	 9.480552	 0.952393	 13.113950	 29.303990	-6.782465	-8.443336	 8.128984	-0.211960
-0.006458	 1.198223	-1.950702	-0.138394	 1.822938	-170.766800	-178.428400	-5.908439	-6.003295	 9.107128	-50.056730	 9.119769	-10.892570	 67.584740	 12.970630	 4.372424	 56.054890	-3.899638	-179.864600	 32.168030	 6.374062	-2.883799	-33.785790	 6.653204	-8.514455	 64.137410	 3.974692	-1.665369	 33.099460	 2.884607	 1.832721	 5.091008	-6.667646	 0.985586	 9.909605	-1.303569	-0.233368	-13.632830	-3.872612	-120.668100	 8.380733	 94.449210	 14.782810	 42.520330	 0.405086	 28.729850	-1.424901	 0.281055	 21.369350	-39.776310	 10.519180	 5.122975	 22.125500	-2.039164	-5.868731	 25.534440	 2.828857	 5.549800	 9.519677	-0.084546	-0.032758	-5.042027	-0.044866	-1.806782	-2.572526	-2.865424	 119.661900	-1.717155	-90.064940	 25.510500	 45.371460	-18.343800	-16.013360	-0.621903	-0.028949	-15.027820	-22.777320	-13.545400	-1.929629	 12.414050	 1.084209	 13.446060	 32.108330	-7.552187	-8.471938	 10.324100	-0.350361
